<svg width="225" height="36" viewBox="0 0 225 36" fill="none" xmlns="http://www.w3.org/2000/svg">
<path d="M0.448 35V1.496H8.08C17.728 1.496 24.112 8.12 24.112 18.248C24.112 28.376 17.728 35 8.08 35H0.448ZM2.56 33.032H7.888C16.528 33.032 21.952 27.224 21.952 18.248C21.952 9.272 16.528 3.464 7.888 3.464H2.56V33.032ZM27.7795 35V9.656H29.7955V35H27.7795ZM26.9635 4.28C26.9635 3.272 27.7315 2.504 28.7875 2.504C29.8435 2.504 30.6115 3.272 30.6115 4.28C30.6115 5.336 29.8435 6.104 28.7875 6.104C27.7315 6.104 26.9635 5.336 26.9635 4.28ZM41.6714 35.24C37.0154 35.24 33.7514 31.88 33.7514 27.176C33.7514 22.472 37.0154 19.208 41.7674 19.208C44.4074 19.208 46.8554 20.264 48.1514 22.472H48.2474V17.816C48.2474 13.592 46.0874 11.288 42.1514 11.288C39.6074 11.288 37.2074 12.296 35.5274 13.304V11.24C37.3034 10.28 39.6554 9.416 42.3914 9.416C47.4314 9.416 50.2634 12.44 50.2634 17.768V35H48.4874V31.592H48.3914C47.0954 33.944 44.5514 35.24 41.6714 35.24ZM35.8154 27.128C35.8154 30.968 38.5034 33.512 42.1514 33.512C45.7034 33.512 48.4394 31.112 48.4394 27.128C48.4394 23.144 45.7034 20.888 42.1514 20.888C38.5034 20.888 35.8154 23.288 35.8154 27.128Z" fill="#C41F1F"/>
<path d="M69.9374 35.288C60.4334 35.288 53.6174 28.328 53.6174 18.248C53.6174 8.168 60.4334 1.208 69.9374 1.208C71.9534 1.208 74.1614 1.544 76.4174 2.36V4.616C74.1134 3.656 71.9054 3.32 69.8894 3.32C61.7294 3.32 55.8254 9.32 55.8254 18.248C55.8254 27.224 61.7294 33.176 69.8894 33.176C71.9054 33.176 74.1134 32.84 76.4174 31.88V34.136C74.1614 34.952 71.9534 35.288 69.9374 35.288ZM86.6714 35.24C82.0154 35.24 78.7514 31.88 78.7514 27.176C78.7514 22.472 82.0154 19.208 86.7674 19.208C89.4074 19.208 91.8554 20.264 93.1514 22.472H93.2474V17.816C93.2474 13.592 91.0874 11.288 87.1514 11.288C84.6074 11.288 82.2074 12.296 80.5274 13.304V11.24C82.3034 10.28 84.6554 9.416 87.3914 9.416C92.4314 9.416 95.2634 12.44 95.2634 17.768V35H93.4874V31.592H93.3914C92.0954 33.944 89.5514 35.24 86.6714 35.24ZM80.8154 27.128C80.8154 30.968 83.5034 33.512 87.1514 33.512C90.7034 33.512 93.4394 31.112 93.4394 27.128C93.4394 23.144 90.7034 20.888 87.1514 20.888C83.5034 20.888 80.8154 23.288 80.8154 27.128ZM100.057 35V0.775997H102.073V35H100.057ZM118.035 35.24C110.691 35.24 105.603 29.96 105.603 22.328C105.603 14.744 110.691 9.416 118.035 9.416C120.099 9.416 122.067 9.848 123.747 10.52V12.728C122.115 11.864 120.147 11.384 118.083 11.384C112.227 11.384 107.715 15.656 107.715 22.328C107.715 29 112.227 33.32 118.083 33.32C120.147 33.32 122.115 32.84 123.747 31.928V34.136C122.067 34.856 120.099 35.24 118.035 35.24ZM134.311 35.24C129.463 35.24 126.727 31.88 126.727 26.696V9.656H128.743V26.408C128.743 30.584 130.855 33.368 134.695 33.368C138.775 33.368 141.271 30.296 141.271 25.928V9.656H143.287V35H141.415V30.728H141.319C140.167 33.512 137.671 35.24 134.311 35.24ZM148.198 35V0.775997H150.214V35H148.198ZM162 35.24C157.344 35.24 154.08 31.88 154.08 27.176C154.08 22.472 157.344 19.208 162.096 19.208C164.736 19.208 167.184 20.264 168.48 22.472H168.576V17.816C168.576 13.592 166.416 11.288 162.48 11.288C159.936 11.288 157.536 12.296 155.855 13.304V11.24C157.632 10.28 159.984 9.416 162.72 9.416C167.76 9.416 170.592 12.44 170.592 17.768V35H168.816V31.592H168.72C167.424 33.944 164.88 35.24 162 35.24ZM156.144 27.128C156.144 30.968 158.832 33.512 162.48 33.512C166.032 33.512 168.768 31.112 168.768 27.128C168.768 23.144 166.032 20.888 162.48 20.888C158.832 20.888 156.144 23.288 156.144 27.128ZM181.827 35.24C177.939 35.24 176.163 33.224 176.163 28.904V11.528H172.899V10.232C175.923 9.944 176.403 9.464 176.499 6.632L176.595 4.664H178.179V9.656H184.898V11.528H178.179V28.856C178.179 31.928 179.379 33.32 182.019 33.32C182.979 33.32 184.083 33.128 185.139 32.792V34.76C184.131 35.048 183.027 35.24 181.827 35.24ZM197.583 35.24C190.191 35.24 185.103 29.912 185.103 22.328C185.103 14.744 190.191 9.416 197.583 9.416C204.927 9.416 210.015 14.744 210.015 22.328C210.015 29.912 204.927 35.24 197.583 35.24ZM187.215 22.328C187.215 29 191.679 33.32 197.583 33.32C203.439 33.32 207.903 29 207.903 22.328C207.903 15.704 203.439 11.384 197.583 11.384C191.679 11.384 187.215 15.704 187.215 22.328ZM213.542 35V9.656H215.414V13.592H215.51C216.47 10.904 218.582 9.416 221.414 9.416C222.326 9.416 223.238 9.608 224.102 9.8V12.008C223.142 11.624 222.134 11.336 221.126 11.336C217.766 11.336 215.558 14.024 215.558 18.44V35H213.542Z" fill="white"/>
</svg>
