<svg width="33" height="52" viewBox="0 0 33 52" fill="none" xmlns="http://www.w3.org/2000/svg">
<g clip-path="url(#clip0_14_315)">
<path d="M31.7351 29.6031C31.6718 29.4256 31.5965 29.2526 31.5098 29.0853L31.5206 29.1091C31.2043 28.3703 28.6606 23.4563 28.236 22.7868L16.4255 -0.00219727L4.31381 23.3458C3.90214 24.0175 1.64447 28.3725 1.33247 29.1091L1.20897 29.3821C0.40346 31.3454 -0.00736271 33.4481 -2.54982e-05 35.5701C-2.54982e-05 39.927 1.73074 44.1055 4.81153 47.1863C7.89231 50.267 12.0708 51.9978 16.4276 51.9978C20.7845 51.9978 24.963 50.267 28.0438 47.1863C31.1245 44.1055 32.8553 39.927 32.8553 35.5701V35.5571L32.8575 35.3383C32.8575 33.2691 32.4458 31.2953 31.6983 29.497L31.7351 29.5988V29.6031ZM16.4341 47.7056C14.3326 47.7061 12.2673 47.1593 10.4413 46.119C8.61536 45.0787 7.09181 43.5808 6.02065 41.7728C4.94948 39.9648 4.36764 37.909 4.33239 35.8078C4.29715 33.7065 4.80972 31.6324 5.81964 29.7895L5.78714 29.8523C5.62844 30.696 5.54865 31.5526 5.54881 32.4111V32.4133C5.5511 36.2604 7.08036 39.9492 9.80064 42.6695C12.5209 45.3898 16.2098 46.919 20.0568 46.9213C20.3016 46.9213 20.5638 46.9213 20.8065 46.9083C19.4217 47.4405 17.9501 47.7108 16.4666 47.7056H16.4168H16.4341Z" fill="#C41F1F"/>
</g>
<defs>
<clipPath id="clip0_14_315">
<rect width="32.5" height="52" fill="white"/>
</clipPath>
</defs>
</svg>
