<svg width="39" height="38" viewBox="0 0 39 38" fill="none" xmlns="http://www.w3.org/2000/svg">
<path d="M30.5833 4.75C31.4232 4.75 32.2286 5.08363 32.8225 5.6775C33.4164 6.27136 33.75 7.07681 33.75 7.91667V30.0833C33.75 30.9232 33.4164 31.7286 32.8225 32.3225C32.2286 32.9164 31.4232 33.25 30.5833 33.25H8.41667C7.57681 33.25 6.77136 32.9164 6.1775 32.3225C5.58363 31.7286 5.25 30.9232 5.25 30.0833V7.91667C5.25 7.07681 5.58363 6.27136 6.1775 5.6775C6.77136 5.08363 7.57681 4.75 8.41667 4.75H30.5833ZM29.7917 29.2917V20.9C29.7917 19.531 29.2479 18.2182 28.2799 17.2502C27.3118 16.2822 25.999 15.7383 24.63 15.7383C23.2842 15.7383 21.7167 16.5617 20.9567 17.7967V16.0392H16.5392V29.2917H20.9567V21.4858C20.9567 20.2667 21.9383 19.2692 23.1575 19.2692C23.7454 19.2692 24.3092 19.5027 24.7249 19.9184C25.1406 20.3341 25.3742 20.8979 25.3742 21.4858V29.2917H29.7917ZM11.3933 13.5533C12.0988 13.5533 12.7754 13.2731 13.2742 12.7742C13.7731 12.2754 14.0533 11.5988 14.0533 10.8933C14.0533 9.42083 12.8658 8.2175 11.3933 8.2175C10.6837 8.2175 10.003 8.49942 9.50123 9.00123C8.99942 9.50305 8.7175 10.1837 8.7175 10.8933C8.7175 12.3658 9.92083 13.5533 11.3933 13.5533ZM13.5942 29.2917V16.0392H9.20833V29.2917H13.5942Z" fill="white"/>
</svg>
