<svg width="30" height="30" viewBox="0 0 30 30" fill="none" xmlns="http://www.w3.org/2000/svg">
<path d="M27.1875 25.8619L20.1075 18.7819C21.8088 16.7393 22.6572 14.1195 22.4762 11.4674C22.2952 8.81527 21.0986 6.33504 19.1355 4.54266C17.1724 2.75027 14.5938 1.78374 11.9362 1.84413C9.27856 1.90452 6.74654 2.98717 4.86684 4.86687C2.98714 6.74657 1.90448 9.27859 1.8441 11.9362C1.78371 14.5938 2.75024 17.1724 4.54263 19.1355C6.33501 21.0987 8.81524 22.2952 11.4674 22.4762C14.1195 22.6573 16.7393 21.8089 18.7818 20.1075L25.8618 27.1875L27.1875 25.8619ZM3.74996 12.1875C3.74996 10.5187 4.24481 8.8874 5.17193 7.49986C6.09906 6.11232 7.41681 5.03087 8.95856 4.39225C10.5003 3.75364 12.1968 3.58655 13.8335 3.91211C15.4702 4.23767 16.9737 5.04127 18.1537 6.22127C19.3337 7.40128 20.1373 8.9047 20.4628 10.5414C20.7884 12.1781 20.6213 13.8746 19.9827 15.4164C19.3441 16.9581 18.2626 18.2759 16.8751 19.203C15.4875 20.1301 13.8562 20.625 12.1875 20.625C9.95045 20.6225 7.80578 19.7328 6.22398 18.151C4.64218 16.5692 3.75244 14.4245 3.74996 12.1875Z" fill="#002366"/>
</svg>
