<svg width="39" height="38" viewBox="0 0 39 38" fill="none" xmlns="http://www.w3.org/2000/svg">
<path d="M12.85 3.16669H26.15C31.2167 3.16669 35.3333 7.28335 35.3333 12.35V25.65C35.3333 28.0856 34.3658 30.4214 32.6436 32.1436C30.9214 33.8658 28.5856 34.8334 26.15 34.8334H12.85C7.78334 34.8334 3.66667 30.7167 3.66667 25.65V12.35C3.66667 9.91445 4.6342 7.57863 6.35641 5.85642C8.07862 4.13421 10.4144 3.16669 12.85 3.16669ZM12.5333 6.33335C11.0216 6.33335 9.57179 6.93389 8.50283 8.00285C7.43387 9.0718 6.83334 10.5216 6.83334 12.0334V25.9667C6.83334 29.1175 9.3825 31.6667 12.5333 31.6667H26.4667C27.9784 31.6667 29.4282 31.0662 30.4972 29.9972C31.5661 28.9282 32.1667 27.4784 32.1667 25.9667V12.0334C32.1667 8.88252 29.6175 6.33335 26.4667 6.33335H12.5333ZM27.8125 8.70835C28.3374 8.70835 28.8408 8.91687 29.212 9.28804C29.5832 9.6592 29.7917 10.1626 29.7917 10.6875C29.7917 11.2124 29.5832 11.7158 29.212 12.087C28.8408 12.4582 28.3374 12.6667 27.8125 12.6667C27.2876 12.6667 26.7842 12.4582 26.413 12.087C26.0419 11.7158 25.8333 11.2124 25.8333 10.6875C25.8333 10.1626 26.0419 9.6592 26.413 9.28804C26.7842 8.91687 27.2876 8.70835 27.8125 8.70835ZM19.5 11.0834C21.5996 11.0834 23.6133 11.9174 25.0979 13.4021C26.5826 14.8868 27.4167 16.9004 27.4167 19C27.4167 21.0997 26.5826 23.1133 25.0979 24.5979C23.6133 26.0826 21.5996 26.9167 19.5 26.9167C17.4004 26.9167 15.3867 26.0826 13.9021 24.5979C12.4174 23.1133 11.5833 21.0997 11.5833 19C11.5833 16.9004 12.4174 14.8868 13.9021 13.4021C15.3867 11.9174 17.4004 11.0834 19.5 11.0834ZM19.5 14.25C18.2402 14.25 17.032 14.7505 16.1412 15.6413C15.2505 16.5321 14.75 17.7402 14.75 19C14.75 20.2598 15.2505 21.468 16.1412 22.3588C17.032 23.2496 18.2402 23.75 19.5 23.75C20.7598 23.75 21.968 23.2496 22.8588 22.3588C23.7496 21.468 24.25 20.2598 24.25 19C24.25 17.7402 23.7496 16.5321 22.8588 15.6413C21.968 14.7505 20.7598 14.25 19.5 14.25Z" fill="white"/>
</svg>
